HIERARCHY
ROOT Hips
{
  OFFSET 5.84602e-005 68.8428 3.50346
  CHANNELS 6 Xposition Yposition Zposition Zrotation Xrotation Yrotation
  JOINT Spine
  {
    OFFSET 0 8.597 -4.6522
    CHANNELS 3 Zrotation Xrotation Yrotation
    JOINT Spine1
    {
      OFFSET 0 7.8454 0.4098
      CHANNELS 3 Zrotation Xrotation Yrotation
      JOINT Spine2
      {
        OFFSET 0 9.7078 -2.1609
        CHANNELS 3 Zrotation Xrotation Yrotation
        JOINT Neck
        {
          OFFSET 0 21.8761 -0.4549
          CHANNELS 3 Zrotation Xrotation Yrotation
          JOINT Head
          {
            OFFSET 0 12.3537 3.3602
            CHANNELS 3 Zrotation Xrotation Yrotation
            End Site
            {
              OFFSET 0.0001 18.9506 0.5657
            }
          }
        }
        JOINT LeftShoulder
        {
          OFFSET 2.2086 21.1115 7.2329
          CHANNELS 3 Zrotation Xrotation Yrotation
          JOINT LeftArm
          {
            OFFSET 13.1193 3.0282 -4.8998
            CHANNELS 3 Zrotation Xrotation Yrotation
            JOINT LeftForeArm
            {
              OFFSET 27.4081 -0.0973053 -0.2375
              CHANNELS 3 Zrotation Xrotation Yrotation
              JOINT LeftHand
              {
                OFFSET 22.8641 0.0662994 -0.1369
                CHANNELS 3 Zrotation Xrotation Yrotation
                JOINT LeftHandIndex1
                {
                  OFFSET 8.8614 0.775009 2.4612
                  CHANNELS 3 Zrotation Xrotation Yrotation
                  JOINT LeftHandIndex2
                  {
                    OFFSET 3.3146 -0.808304 0.5841
                    CHANNELS 3 Zrotation Xrotation Yrotation
                    JOINT LeftHandIndex3
                    {
                      OFFSET 2.2628 -0.552002 0.3989
                      CHANNELS 3 Zrotation Xrotation Yrotation
                      End Site
                      {
                        OFFSET 1.6102 -0.4807 0.2612
                      }
                    }
                  }
                }
                JOINT LeftHandMiddle1
                {
                  OFFSET 8.9937 0.895004 0.2143
                  CHANNELS 3 Zrotation Xrotation Yrotation
                  JOINT LeftHandMiddle2
                  {
                    OFFSET 4.0984 0.0113983 -0.0242
                    CHANNELS 3 Zrotation Xrotation Yrotation
                    JOINT LeftHandMiddle3
                    {
                      OFFSET 2.2716 0.00689697 -0.0138001
                      CHANNELS 3 Zrotation Xrotation Yrotation
                      End Site
                      {
                        OFFSET 2.0404 -0.1441 0.0027
                      }
                    }
                  }
                }
                JOINT LeftHandRing1
                {
                  OFFSET 8.5234 0.597198 -2.0164
                  CHANNELS 3 Zrotation Xrotation Yrotation
                  JOINT LeftHandRing2
                  {
                    OFFSET 3.7188 -0.188293 -0.2328
                    CHANNELS 3 Zrotation Xrotation Yrotation
                    JOINT LeftHandRing3
                    {
                      OFFSET 2.1191 -0.106598 -0.1332
                      CHANNELS 3 Zrotation Xrotation Yrotation
                      End Site
                      {
                        OFFSET 1.8737 -0.2304 -0.0886
                      }
                    }
                  }
                }
                JOINT LeftHandPinky1
                {
                  OFFSET 7.9094 -0.601089 -3.4825
                  CHANNELS 3 Zrotation Xrotation Yrotation
                  JOINT LeftHandPinky2
                  {
                    OFFSET 2.2874 -0.477005 -0.6314
                    CHANNELS 3 Zrotation Xrotation Yrotation
                    JOINT LeftHandPinky3
                    {
                      OFFSET 1.6774 -0.349396 -0.4633
                      CHANNELS 3 Zrotation Xrotation Yrotation
                      End Site
                      {
                        OFFSET 1.4888 -0.4091 -0.3416
                      }
                    }
                  }
                }
                JOINT LeftHandThumb1
                {
                  OFFSET 1.833 -1.3875 1.3896
                  CHANNELS 3 Zrotation Xrotation Yrotation
                  JOINT LeftHandThumb2
                  {
                    OFFSET 3.4129 -1.121 2.5732
                    CHANNELS 3 Zrotation Xrotation Yrotation
                    JOINT LeftHandThumb3
                    {
                      OFFSET 2.2474 -0.804199 1.6192
                      CHANNELS 3 Zrotation Xrotation Yrotation
                      End Site
                      {
                        OFFSET 1.6527 -0.5689 1.1317
                      }
                    }
                  }
                }
              }
            }
          }
        }
        JOINT RightShoulder
        {
          OFFSET -2.2086 21.1115 7.2329
          CHANNELS 3 Zrotation Xrotation Yrotation
          JOINT RightArm
          {
            OFFSET -13.1216 3.0287 -4.9007
            CHANNELS 3 Zrotation Xrotation Yrotation
            JOINT RightForeArm
            {
              OFFSET -27.4081 -0.0973053 -0.2375
              CHANNELS 3 Zrotation Xrotation Yrotation
              JOINT RightHand
              {
                OFFSET -22.8641 0.0664063 -0.1369
                CHANNELS 3 Zrotation Xrotation Yrotation
                JOINT RightHandIndex1
                {
                  OFFSET -8.8614 0.774994 2.4612
                  CHANNELS 3 Zrotation Xrotation Yrotation
                  JOINT RightHandIndex2
                  {
                    OFFSET -3.3146 -0.808304 0.5841
                    CHANNELS 3 Zrotation Xrotation Yrotation
                    JOINT RightHandIndex3
                    {
                      OFFSET -2.2628 -0.552002 0.3989
                      CHANNELS 3 Zrotation Xrotation Yrotation
                      End Site
                      {
                        OFFSET -1.6102 -0.4807 0.2612
                      }
                    }
                  }
                }
                JOINT RightHandMiddle1
                {
                  OFFSET -8.9937 0.894989 0.2143
                  CHANNELS 3 Zrotation Xrotation Yrotation
                  JOINT RightHandMiddle2
                  {
                    OFFSET -4.0984 0.0113983 -0.0242
                    CHANNELS 3 Zrotation Xrotation Yrotation
                    JOINT RightHandMiddle3
                    {
                      OFFSET -2.2716 0.00691223 -0.0138001
                      CHANNELS 3 Zrotation Xrotation Yrotation
                      End Site
                      {
                        OFFSET -2.0404 -0.1441 0.0027
                      }
                    }
                  }
                }
                JOINT RightHandRing1
                {
                  OFFSET -8.5234 0.597198 -2.0164
                  CHANNELS 3 Zrotation Xrotation Yrotation
                  JOINT RightHandRing2
                  {
                    OFFSET -3.7188 -0.188309 -0.2328
                    CHANNELS 3 Zrotation Xrotation Yrotation
                    JOINT RightHandRing3
                    {
                      OFFSET -2.1191 -0.106598 -0.1332
                      CHANNELS 3 Zrotation Xrotation Yrotation
                      End Site
                      {
                        OFFSET -1.8737 -0.2304 -0.0886
                      }
                    }
                  }
                }
                JOINT RightHandPinky1
                {
                  OFFSET -7.9094 -0.601105 -3.4825
                  CHANNELS 3 Zrotation Xrotation Yrotation
                  JOINT RightHandPinky2
                  {
                    OFFSET -2.2874 -0.477005 -0.6314
                    CHANNELS 3 Zrotation Xrotation Yrotation
                    JOINT RightHandPinky3
                    {
                      OFFSET -1.6774 -0.349396 -0.4633
                      CHANNELS 3 Zrotation Xrotation Yrotation
                      End Site
                      {
                        OFFSET -1.4888 -0.4091 -0.3416
                      }
                    }
                  }
                }
                JOINT RightHandThumb1
                {
                  OFFSET -1.833 -1.38751 1.3896
                  CHANNELS 3 Zrotation Xrotation Yrotation
                  JOINT RightHandThumb2
                  {
                    OFFSET -3.41299 -1.12099 2.5732
                    CHANNELS 3 Zrotation Xrotation Yrotation
                    JOINT RightHandThumb3
                    {
                      OFFSET -2.24741 -0.804108 1.6192
                      CHANNELS 3 Zrotation Xrotation Yrotation
                      End Site
                      {
                        OFFSET -1.6527 -0.5689 1.1317
                      }
                    }
                  }
                }
              }
            }
          }
        }
      }
    }
  }
  JOINT RightUpLeg
  {
    OFFSET -9.1966 3.8861 -0.7581
    CHANNELS 3 Zrotation Xrotation Yrotation
    JOINT RightLeg
    {
      OFFSET -0.7359 -41.0265 0
      CHANNELS 3 Zrotation Xrotation Yrotation
      JOINT RightFoot
      {
        OFFSET 0 -40.2855 0
        CHANNELS 3 Zrotation Xrotation Yrotation
        JOINT RightToeBase
        {
          OFFSET 0 -5.6122 11.7359
          CHANNELS 3 Zrotation Xrotation Yrotation
          End Site
          {
            OFFSET 0 0 7.8731
          }
        }
      }
    }
  }
  JOINT LeftUpLeg
  {
    OFFSET 9.1965 3.8864 -0.7581
    CHANNELS 3 Zrotation Xrotation Yrotation
    JOINT LeftLeg
    {
      OFFSET 0.7359 -41.0268 0
      CHANNELS 3 Zrotation Xrotation Yrotation
      JOINT LeftFoot
      {
        OFFSET 0 -40.2855 0
        CHANNELS 3 Zrotation Xrotation Yrotation
        JOINT LeftToeBase
        {
          OFFSET 0 -5.6122 11.7359
          CHANNELS 3 Zrotation Xrotation Yrotation
          End Site
          {
            OFFSET 0 0 7.8731
          }
        }
      }
    }
  }
}
MOTION
Frames:	4
Frame Time:	0.0333333
5.84602e-005 68.8428 3.50346 0 0 -0 0 0 -0 0 0 -0 0 0 -0 0 0 -0 0 0 -0 0 0 -0 0 0 -0 0 0 -0 0 0 -0 0 0 -0 0 0 -0 0 0 -0 0 0 -0 -0.0146107 -8.87603e-005 -2.63497e-007 2.99804e-018 -2.42657e-020 -1.42182e-022 0 0 -0 -0.0187562 -0.001176 5.858e-005 5.06224e-018 3.88251e-019 1.21329e-020 0 0 -0 -0.012269 -0.00324817 0.000675346 -1.74678e-018 3.88251e-019 -0 0 0 -0 0 0 -0 0 0 -0 0 0 -0 0 0 -0 0 0 -0 0 0 -0 0 0 -0 0 0 -0 0 0 -0 0 0 -0 0.0149955 -9.10982e-005 2.64101e-007 -9.69331e-018 1.21329e-020 -4.7394e-023 0 0 -0 0.0189956 -0.00119102 -5.96516e-005 -5.41541e-019 0 2.42657e-020 0 0 -0 0.0122698 -0.00324857 -0.000673756 -2.00796e-019 0 -1.94126e-019 0 0 -0 0 0 -0 0 0 -0 3.39842 1.33031 -0.0637918 -5.65207e-008 0.834868 -0.000436188 -3.39935 -2.16518 -0.0642563 -8.89002e-024 -1.18485e-023 -1.48106e-024 -3.39844 1.35642 0.0640283 -3.18788e-007 0.782166 -0.000588827 3.39931 -2.13858 0.0634662 1.1399e-023 0 -0 
-2.59435 36.6379 28.9052 -46.6897 -34.4637 118.082 -0.442313 2.80923 -0.291566 -0.871902 5.62064 -0.562372 -0.871909 5.62062 -0.562342 8.7025e-005 -0.211181 -5.75125e-006 7.66368e-006 -13.453 -7.41893e-007 -1.4896 2.5688 18.2914 11.5878 -20.7558 -42.0881 -15.0951 -67.7127 -92.1339 17.7646 26.2166 0.0111204 -1.85139e-006 -2.2895e-007 6.87493e-008 7.05171e-008 -1.0879e-006 -3.05854e-006 -1.41609e-006 -7.02129e-007 -1.20884e-006 -1.85139e-006 -2.2895e-007 6.87493e-008 -0.0145824 -8.83173e-005 -3.50097e-006 -1.85144e-006 -2.28959e-007 6.87216e-008 -1.85139e-006 -2.2895e-007 6.87493e-008 -0.0188004 -0.00117727 6.1162e-005 -1.85145e-006 -2.28965e-007 6.8731e-008 -1.85139e-006 -2.2895e-007 6.87493e-008 -0.0121728 -0.00322261 0.000672579 -1.85143e-006 -2.28958e-007 6.87794e-008 -1.85139e-006 -2.2895e-007 6.87493e-008 7.05171e-008 -1.0879e-006 -3.05854e-006 -1.41609e-006 -7.02129e-007 -1.20884e-006 7.00955 0.220285 -17.0582 -8.86901 -16.2698 41.1327 11.7548 -12.4339 105.353 -17.7659 26.2163 -0.0149811 -2.76193e-007 -4.7918e-007 -9.94839e-007 -1.57341e-006 7.18687e-007 -1.02184e-008 -1.2144e-006 -3.44474e-007 -4.1865e-006 -2.76193e-007 -4.7918e-007 -9.94839e-007 0.0149721 -9.12757e-005 -5.00694e-006 -2.74915e-007 -4.79318e-007 -9.94776e-007 -2.76193e-007 -4.7918e-007 -9.94839e-007 0.0190086 -0.00119124 -6.19401e-005 -1.21532e-006 -3.45115e-007 -4.18643e-006 -2.76193e-007 -4.7918e-007 -9.94839e-007 0.0122643 -0.00324563 -0.000677954 -1.21508e-006 -3.44781e-007 -4.1864e-006 -2.76193e-007 -4.7918e-007 -9.94839e-007 -1.57341e-006 7.18687e-007 -1.02184e-008 -1.2144e-006 -3.44474e-007 -4.1865e-006 -31.3997 -65.8363 -46.5505 -17.1568 83.8444 17.1203 -10.0487 35.2255 3.48975 1.27222e-014 -1.59028e-015 -0 31.2085 -65.7927 46.2515 16.6232 83.7591 -16.5472 9.91858 34.825 -3.44468 2.05177e-006 4.80291e-007 2.49586e-006 
1.36949 24.2461 44.0937 54.1764 -73.7146 -124.71 -0.614368 4.08489 -0.458134 -1.20045 8.17475 -0.875518 -1.20045 8.17472 -0.875527 -7.49313e-005 -0.421259 2.07627e-005 -1.41981e-006 -18.9216 2.24992e-007 -2.78892 3.50622 26.6646 8.3527 -20.4958 -62.7625 -37.0563 -39.0189 -136.486 25.8264 38.037 -0.0518991 -2.73243e-006 1.79465e-006 1.63856e-006 -1.59028e-015 -1.68967e-015 1.59028e-015 -1.59028e-015 -1.68967e-015 7.95139e-016 -2.73243e-006 1.79465e-006 1.63856e-006 -0.0145927 -9.22069e-005 6.46871e-006 -3.18055e-015 -1.59028e-015 -1.59028e-015 -2.73243e-006 1.79465e-006 1.63856e-006 -0.018765 -0.0011777 6.31328e-005 1.59028e-015 -3.18055e-015 -2.38542e-015 -2.73243e-006 1.79465e-006 1.63856e-006 -0.0122727 -0.00325006 0.000675927 -3.18055e-015 -9.44227e-015 -0 -2.73243e-006 1.79465e-006 1.63856e-006 -1.59028e-015 -1.68967e-015 1.59028e-015 -1.59028e-015 -1.68967e-015 7.95139e-016 10.3012 0.317372 -24.8526 -6.36012 -16.1943 60.7231 42.6666 -52.0318 144.322 -25.8354 38.0409 0.0573388 7.95139e-016 6.36111e-015 -0 -3.97569e-015 3.97569e-015 -3.18055e-015 7.95139e-016 3.97569e-015 -9.54166e-015 7.95139e-016 6.36111e-015 -0 0.0149984 -9.24509e-005 -9.75213e-007 -3.18055e-015 1.59028e-015 -0 7.95139e-016 6.36111e-015 -0 0.0189871 -0.0011887 -5.78271e-005 -0 -3.97569e-015 -0 7.95139e-016 6.36111e-015 -0 0.0122631 -0.00324443 -0.00066957 1.59028e-015 1.59028e-015 -6.36111e-015 7.95139e-016 6.36111e-015 -0 -3.97569e-015 3.97569e-015 -3.18055e-015 7.95139e-016 3.97569e-015 -9.54166e-015 -108.206 -61.5739 -122.047 -171.667 59.7161 169.68 -15.0302 53.2334 6.12122 -1.39639e-006 -3.75929e-007 -1.53535e-006 108.121 -61.7377 121.846 171.781 59.8584 -169.759 14.7577 52.6316 -5.98078 -2.59109e-006 -1.92693e-006 1.12954e-006 
-0.00125488 26.9122 41.0602 -0.0268159 -74.9991 179.979 -0.585139 3.83144 -0.426449 -1.14548 7.66714 -0.816309 -1.14548 7.66714 -0.816309 5.95331e-006 -0.632277 3.95759e-006 -3.96384e-008 -16.4051 -5.16766e-007 -2.71253 3.3077 25.0598 9.16909 -21.1422 -58.5712 -37.4885 -46.5477 -132.981 24.1834 35.4609 -0.187244 1.34179e-006 -9.61941e-007 -3.3285e-007 -7.95139e-016 -1.19271e-015 -3.18055e-015 1.34179e-006 -9.61941e-007 -3.3285e-007 1.34179e-006 -9.61941e-007 -3.3285e-007 -0.0146075 -9.20056e-005 1.68393e-006 2.84204e-006 -1.10521e-006 1.76536e-006 1.34179e-006 -9.61941e-007 -3.3285e-007 -0.0187446 -0.00117279 6.14535e-005 1.34183e-006 -9.61884e-007 -3.33021e-007 1.34179e-006 -9.61941e-007 -3.3285e-007 -0.0122799 -0.00325125 0.000687068 2.84239e-006 -1.10561e-006 1.7654e-006 1.34179e-006 -9.61941e-007 -3.3285e-007 -7.95139e-016 -1.19271e-015 -3.18055e-015 1.34179e-006 -9.61941e-007 -3.3285e-007 9.77889 0.328349 -23.3829 -7.00873 -16.6457 56.7016 31.2709 -42.9578 133.491 -24.2078 35.4735 0.215903 2.38542e-015 0 -0 7.95139e-016 -3.57812e-015 3.18055e-015 0 6.75868e-015 -0 2.38542e-015 0 -0 0.0149791 -9.09689e-005 -4.79095e-007 1.59028e-015 -1.19271e-015 6.36111e-015 2.38542e-015 0 -0 0.0189909 -0.00119135 -6.06328e-005 2.99364e-007 8.04729e-007 2.20047e-006 2.38542e-015 0 -0 0.0122617 -0.00324606 -0.000679245 -2.38542e-015 -1.19271e-015 -0 2.38542e-015 0 -0 7.95139e-016 -3.57812e-015 3.18055e-015 0 6.75868e-015 -0 -95.4431 -65.968 -109.868 -170.168 67.6182 168.797 -13.7604 49.1521 5.40868 -1.86717e-006 -1.04284e-007 -2.69044e-007 95.2627 -66.096 109.57 170.288 67.7536 -168.879 13.5322 48.5975 -5.30224 2.0248e-006 4.35119e-006 -1.31695e-009 
